<svg xmlns="http://www.w3.org/2000/svg" xmlns:xlink="http://www.w3.org/1999/xlink" width="500" zoomAndPan="magnify" viewBox="0 0 375 374.999991" height="500" preserveAspectRatio="xMidYMid meet" version="1.0"><defs><g/><clipPath id="38f5cfd9df"><path d="M 265.542969 176.835938 L 273.792969 176.835938 L 273.792969 203.085938 L 265.542969 203.085938 Z M 265.542969 176.835938 " clip-rule="nonzero"/></clipPath><clipPath id="468bc3e6bb"><path d="M 264.210938 192.421875 L 279 192.421875 L 279 204 L 264.210938 204 Z M 264.210938 192.421875 " clip-rule="nonzero"/></clipPath><clipPath id="1f255fe5a2"><path d="M 264.210938 200 L 266 200 L 266 202 L 264.210938 202 Z M 264.210938 200 " clip-rule="nonzero"/></clipPath><clipPath id="05ac61187a"><path d="M 265 161.121094 L 274.710938 161.121094 L 274.710938 164.871094 L 265 164.871094 Z M 265 161.121094 " clip-rule="nonzero"/></clipPath><clipPath id="36285cb0b1"><path d="M 269 162 L 274.710938 162 L 274.710938 164.871094 L 269 164.871094 Z M 269 162 " clip-rule="nonzero"/></clipPath><clipPath id="74d869c366"><path d="M 265 161.121094 L 274 161.121094 L 274 164 L 265 164 Z M 265 161.121094 " clip-rule="nonzero"/></clipPath><clipPath id="b0ba5a2001"><path d="M 274 161.121094 L 274.710938 161.121094 L 274.710938 163 L 274 163 Z M 274 161.121094 " clip-rule="nonzero"/></clipPath><clipPath id="15d102be47"><path d="M 270 163 L 271 163 L 271 164.871094 L 270 164.871094 Z M 270 163 " clip-rule="nonzero"/></clipPath><clipPath id="197c9c23b7"><path d="M 273 162 L 274.710938 162 L 274.710938 164 L 273 164 Z M 273 162 " clip-rule="nonzero"/></clipPath><clipPath id="4a069fef4c"><path d="M 269 161.121094 L 272 161.121094 L 272 163 L 269 163 Z M 269 161.121094 " clip-rule="nonzero"/></clipPath><clipPath id="a86609438d"><path d="M 265 161.121094 L 268 161.121094 L 268 163 L 265 163 Z M 265 161.121094 " clip-rule="nonzero"/></clipPath><clipPath id="d0e1270c2d"><path d="M 273 161.121094 L 274.710938 161.121094 L 274.710938 163 L 273 163 Z M 273 161.121094 " clip-rule="nonzero"/></clipPath></defs><g fill="#ffffff" fill-opacity="1"><g transform="translate(24.67222, 199.499987)"><g><path d="M 2.734375 -37.6875 L 13.65625 -37.6875 C 18.894531 -37.6875 23.375 -35.894531 27.09375 -32.3125 C 30.8125 -28.738281 32.671875 -24.257812 32.671875 -18.875 C 32.671875 -13.445312 30.816406 -8.941406 27.109375 -5.359375 C 23.410156 -1.785156 18.925781 0 13.65625 0 L 2.734375 0 Z M 11.328125 -7.671875 L 12.65625 -7.671875 C 15.789062 -7.671875 18.351562 -8.726562 20.34375 -10.84375 C 22.34375 -12.96875 23.359375 -15.628906 23.390625 -18.828125 C 23.390625 -22.023438 22.390625 -24.6875 20.390625 -26.8125 C 18.398438 -28.945312 15.820312 -30.015625 12.65625 -30.015625 L 11.328125 -30.015625 Z M 11.328125 -7.671875 "/></g></g></g><g fill="#ffffff" fill-opacity="1"><g transform="translate(58.383788, 199.499987)"><g><path d="M 1.046875 -18.875 C 1.046875 -24.320312 2.90625 -28.929688 6.625 -32.703125 C 10.34375 -36.484375 14.820312 -38.375 20.0625 -38.375 C 25.320312 -38.375 29.796875 -36.492188 33.484375 -32.734375 C 37.171875 -28.972656 39.015625 -24.351562 39.015625 -18.875 C 39.015625 -13.351562 37.203125 -8.710938 33.578125 -4.953125 C 29.953125 -1.191406 25.445312 0.6875 20.0625 0.6875 C 14.539062 0.6875 9.988281 -1.175781 6.40625 -4.90625 C 2.832031 -8.644531 1.046875 -13.300781 1.046875 -18.875 Z M 10.328125 -18.875 C 10.328125 -16.894531 10.628906 -15.085938 11.234375 -13.453125 C 11.847656 -11.828125 12.914062 -10.445312 14.4375 -9.3125 C 15.957031 -8.1875 17.832031 -7.625 20.0625 -7.625 C 23.257812 -7.625 25.671875 -8.71875 27.296875 -10.90625 C 28.929688 -13.101562 29.75 -15.757812 29.75 -18.875 C 29.75 -21.945312 28.914062 -24.585938 27.25 -26.796875 C 25.59375 -29.003906 23.195312 -30.109375 20.0625 -30.109375 C 16.945312 -30.109375 14.546875 -29.003906 12.859375 -26.796875 C 11.171875 -24.585938 10.328125 -21.945312 10.328125 -18.875 Z M 10.328125 -18.875 "/></g></g></g><g fill="#ffffff" fill-opacity="1"><g transform="translate(98.444825, 199.499987)"><g/></g></g><g fill="#ffffff" fill-opacity="1"><g transform="translate(110.915359, 199.499987)"><g><path d="M 1.046875 -18.875 C 1.046875 -24.320312 2.90625 -28.929688 6.625 -32.703125 C 10.34375 -36.484375 14.820312 -38.375 20.0625 -38.375 C 25.320312 -38.375 29.796875 -36.492188 33.484375 -32.734375 C 37.171875 -28.972656 39.015625 -24.351562 39.015625 -18.875 C 39.015625 -13.351562 37.203125 -8.710938 33.578125 -4.953125 C 29.953125 -1.191406 25.445312 0.6875 20.0625 0.6875 C 14.539062 0.6875 9.988281 -1.175781 6.40625 -4.90625 C 2.832031 -8.644531 1.046875 -13.300781 1.046875 -18.875 Z M 10.328125 -18.875 C 10.328125 -16.894531 10.628906 -15.085938 11.234375 -13.453125 C 11.847656 -11.828125 12.914062 -10.445312 14.4375 -9.3125 C 15.957031 -8.1875 17.832031 -7.625 20.0625 -7.625 C 23.257812 -7.625 25.671875 -8.71875 27.296875 -10.90625 C 28.929688 -13.101562 29.75 -15.757812 29.75 -18.875 C 29.75 -21.945312 28.914062 -24.585938 27.25 -26.796875 C 25.59375 -29.003906 23.195312 -30.109375 20.0625 -30.109375 C 16.945312 -30.109375 14.546875 -29.003906 12.859375 -26.796875 C 11.171875 -24.585938 10.328125 -21.945312 10.328125 -18.875 Z M 10.328125 -18.875 "/></g></g></g><g fill="#ffffff" fill-opacity="1"><g transform="translate(150.976396, 199.499987)"><g><path d="M 2.734375 -37.6875 L 16.21875 -37.6875 C 19.84375 -37.6875 22.796875 -36.71875 25.078125 -34.78125 C 27.367188 -32.851562 28.515625 -30.09375 28.515625 -26.5 C 28.515625 -23.726562 27.816406 -21.40625 26.421875 -19.53125 C 25.035156 -17.65625 23.15625 -16.335938 20.78125 -15.578125 L 33.765625 0 L 22.84375 0 L 11.328125 -14.890625 L 11.328125 0 L 2.734375 0 Z M 11.328125 -20.96875 L 12.328125 -20.96875 C 13.128906 -20.96875 13.800781 -20.984375 14.34375 -21.015625 C 14.894531 -21.046875 15.519531 -21.148438 16.21875 -21.328125 C 16.914062 -21.515625 17.476562 -21.773438 17.90625 -22.109375 C 18.332031 -22.441406 18.695312 -22.925781 19 -23.5625 C 19.3125 -24.207031 19.46875 -24.988281 19.46875 -25.90625 C 19.46875 -26.820312 19.3125 -27.597656 19 -28.234375 C 18.695312 -28.867188 18.332031 -29.351562 17.90625 -29.6875 C 17.476562 -30.03125 16.914062 -30.289062 16.21875 -30.46875 C 15.519531 -30.65625 14.894531 -30.765625 14.34375 -30.796875 C 13.800781 -30.828125 13.128906 -30.84375 12.328125 -30.84375 L 11.328125 -30.84375 Z M 11.328125 -20.96875 "/></g></g></g><g fill="#ffffff" fill-opacity="1"><g transform="translate(183.683013, 199.499987)"><g/></g></g><g fill="#ffffff" fill-opacity="1"><g transform="translate(196.153548, 199.499987)"><g><path d="M 2.734375 -37.6875 L 13.65625 -37.6875 C 18.894531 -37.6875 23.375 -35.894531 27.09375 -32.3125 C 30.8125 -28.738281 32.671875 -24.257812 32.671875 -18.875 C 32.671875 -13.445312 30.816406 -8.941406 27.109375 -5.359375 C 23.410156 -1.785156 18.925781 0 13.65625 0 L 2.734375 0 Z M 11.328125 -7.671875 L 12.65625 -7.671875 C 15.789062 -7.671875 18.351562 -8.726562 20.34375 -10.84375 C 22.34375 -12.96875 23.359375 -15.628906 23.390625 -18.828125 C 23.390625 -22.023438 22.390625 -24.6875 20.390625 -26.8125 C 18.398438 -28.945312 15.820312 -30.015625 12.65625 -30.015625 L 11.328125 -30.015625 Z M 11.328125 -7.671875 "/></g></g></g><g fill="#ffffff" fill-opacity="1"><g transform="translate(229.865116, 199.499987)"><g><path d="M 2.734375 -37.6875 L 16.21875 -37.6875 C 19.84375 -37.6875 22.796875 -36.71875 25.078125 -34.78125 C 27.367188 -32.851562 28.515625 -30.09375 28.515625 -26.5 C 28.515625 -23.726562 27.816406 -21.40625 26.421875 -19.53125 C 25.035156 -17.65625 23.15625 -16.335938 20.78125 -15.578125 L 33.765625 0 L 22.84375 0 L 11.328125 -14.890625 L 11.328125 0 L 2.734375 0 Z M 11.328125 -20.96875 L 12.328125 -20.96875 C 13.128906 -20.96875 13.800781 -20.984375 14.34375 -21.015625 C 14.894531 -21.046875 15.519531 -21.148438 16.21875 -21.328125 C 16.914062 -21.515625 17.476562 -21.773438 17.90625 -22.109375 C 18.332031 -22.441406 18.695312 -22.925781 19 -23.5625 C 19.3125 -24.207031 19.46875 -24.988281 19.46875 -25.90625 C 19.46875 -26.820312 19.3125 -27.597656 19 -28.234375 C 18.695312 -28.867188 18.332031 -29.351562 17.90625 -29.6875 C 17.476562 -30.03125 16.914062 -30.289062 16.21875 -30.46875 C 15.519531 -30.65625 14.894531 -30.765625 14.34375 -30.796875 C 13.800781 -30.828125 13.128906 -30.84375 12.328125 -30.84375 L 11.328125 -30.84375 Z M 11.328125 -20.96875 "/></g></g></g><g fill="#ffffff" fill-opacity="1"><g transform="translate(262.571734, 199.499987)"><g><path d="M 11.328125 -37.6875 L 11.328125 0 L 2.734375 0 L 2.734375 -37.6875 Z M 11.328125 -37.6875 "/></g></g></g><g fill="#ffffff" fill-opacity="1"><g transform="translate(276.641053, 199.499987)"><g><path d="M 11.328125 -23.390625 L 11.328125 0 L 2.734375 0 L 2.734375 -37.6875 L 11.328125 -37.6875 L 26.3125 -14.296875 L 26.40625 -14.296875 L 26.40625 -37.6875 L 35 -37.6875 L 35 0 L 26.40625 0 L 11.421875 -23.390625 Z M 11.328125 -23.390625 "/></g></g></g><g fill="#ffffff" fill-opacity="1"><g transform="translate(314.372427, 199.499987)"><g><path d="M 37.046875 0 L 25.21875 0 L 11.328125 -15.984375 L 11.328125 0 L 2.734375 0 L 2.734375 -37.6875 L 11.328125 -37.6875 L 11.328125 -22.296875 L 24.265625 -37.6875 L 34.671875 -37.6875 L 19.515625 -19.828125 Z M 37.046875 0 "/></g></g></g><g clip-path="url(#38f5cfd9df)"><path fill="#000000" d="M 271.164062 176.835938 C 268.015625 177.054688 259.226562 177.265625 259.90625 181.230469 C 260.054688 181.769531 260.222656 182.289062 260.425781 182.8125 C 262.355469 188.714844 263.132812 194.925781 263.367188 201.097656 C 263.394531 201.671875 263.574219 202.125 263.910156 202.570312 C 266.871094 205.335938 271.839844 205.136719 274.695312 202.316406 C 275.105469 201.945312 275.550781 201.515625 275.464844 200.890625 C 275.308594 195.242188 276.4375 189.625 277.480469 184.085938 C 277.71875 182.90625 277.960938 181.71875 278.363281 180.585938 C 279.910156 176.960938 272.84375 176.96875 271.164062 176.835938 Z M 274.753906 201.371094 C 273.371094 203.183594 271.269531 203.917969 268.636719 203.929688 C 267.675781 203.832031 263.34375 202.847656 264.113281 200.84375 C 264.242188 200.691406 264.527344 201.085938 264.746094 201.234375 C 267.605469 202.953125 271.734375 203.113281 274.367188 200.917969 C 274.488281 200.8125 274.640625 200.542969 274.796875 200.691406 C 274.980469 200.867188 274.914062 201.152344 274.753906 201.371094 Z M 275.683594 191.050781 C 275.367188 193.691406 274.933594 196.320312 274.894531 198.984375 C 274.628906 201.207031 271.351562 201.972656 269.097656 201.882812 C 267.671875 201.777344 265.84375 201.46875 264.34375 200.183594 C 264.089844 199.964844 263.933594 199.769531 263.894531 199.417969 C 263.683594 197.550781 263.660156 195.675781 263.4375 193.808594 C 263.164062 191.558594 262.726562 189.347656 262.246094 187.140625 C 262.007812 186.050781 262.203125 185.734375 263.367188 185.554688 C 264.90625 185.316406 266.191406 185.917969 267.375 186.769531 C 269.683594 188.566406 272.003906 191.242188 275.269531 190.617188 C 275.808594 190.570312 275.71875 190.761719 275.683594 191.050781 Z M 277.324219 182.390625 C 276.808594 184.632812 276.378906 186.890625 276.019531 189.164062 C 275.917969 189.816406 275.46875 190.117188 274.789062 190.066406 C 269.859375 190.726562 267.445312 182.953125 262.28125 185.3125 C 262.023438 185.4375 261.855469 185.539062 261.78125 185.140625 C 261.578125 184.105469 261.265625 183.101562 260.835938 182.132812 C 260.683594 181.929688 260.808594 181.660156 261.046875 181.859375 C 262.757812 182.996094 264.71875 182.964844 266.65625 182.980469 C 269.996094 183 273.246094 182.449219 276.433594 181.496094 C 276.785156 181.390625 277.226562 180.992188 277.46875 181.246094 C 277.734375 181.515625 277.414062 182.003906 277.324219 182.390625 Z M 273.015625 181.738281 C 269.113281 182.386719 264.09375 183.226562 260.640625 180.933594 C 260.222656 180.640625 260.386719 180.21875 260.71875 179.910156 C 263.488281 177.609375 267.460938 177.738281 270.898438 177.449219 C 276.636719 177.429688 282.449219 179.96875 273.015625 181.738281 Z M 266.046875 200.164062 C 265.832031 200.429688 265.585938 200.195312 265.382812 200.074219 C 264.453125 199.515625 264.289062 198.601562 264.363281 197.667969 C 264.566406 195.441406 264.300781 193.253906 263.949219 191.0625 C 263.917969 190.890625 263.957031 190.730469 264.136719 190.683594 C 264.960938 190.347656 265.070312 195.738281 265.023438 196.355469 C 265.121094 197.453125 264.644531 198.867188 265.761719 199.59375 C 265.945312 199.714844 266.277344 199.871094 266.046875 200.164062 Z M 268.636719 200.394531 C 268.609375 200.789062 268.097656 200.855469 267.714844 200.84375 C 267.429688 200.835938 267.019531 200.820312 267.078125 200.4375 C 267.152344 199.929688 267.628906 200.273438 267.914062 200.167969 C 268.164062 200.273438 268.660156 200.019531 268.636719 200.394531 Z M 268.636719 200.394531 " fill-opacity="1" fill-rule="nonzero"/></g><g clip-path="url(#468bc3e6bb)"><path fill="#f7f619" d="M 265.015625 199.894531 L 264.566406 201.011719 L 265.105469 201.535156 L 265.789062 202.101562 L 266.421875 202.515625 L 266.980469 202.816406 L 267.632812 203.054688 L 268.453125 203.246094 L 269.921875 203.484375 L 270.671875 203.523438 L 271.816406 203.472656 L 273.097656 203.398438 L 273.710938 203.328125 L 274.316406 203.1875 L 274.773438 203.03125 L 275.195312 202.804688 L 275.695312 202.457031 L 276.265625 201.957031 L 276.71875 201.464844 L 277.234375 200.796875 L 277.640625 200.171875 L 277.957031 199.621094 L 278.109375 199.054688 L 278.1875 198.367188 L 278.152344 197.769531 L 278.0625 197.257812 L 277.917969 196.738281 L 277.664062 196.105469 L 277.324219 195.460938 L 276.898438 194.796875 L 276.386719 194.128906 L 275.789062 193.441406 L 275.230469 192.859375 Z M 265.015625 199.894531 " fill-opacity="1" fill-rule="evenodd"/></g><path fill="#e8e800" d="M 274.738281 202.941406 L 273.863281 203.148438 L 272.640625 203.363281 L 271.589844 203.46875 L 270.855469 203.5 L 270.101562 203.46875 L 269.238281 203.332031 L 268.324219 203.117188 L 267.339844 202.824219 L 266.726562 202.59375 L 266.355469 202.390625 L 265.988281 202.101562 L 265.757812 201.867188 L 265.660156 201.714844 L 265.660156 201.644531 L 265.6875 201.625 L 265.871094 201.667969 L 267.230469 202.273438 L 268.519531 202.863281 L 268.820312 202.949219 L 268.851562 202.929688 L 268.738281 202.722656 L 268.761719 202.679688 L 268.953125 202.671875 L 270.132812 202.820312 L 270.472656 202.816406 L 270.765625 202.730469 L 271.117188 202.585938 L 271.375 202.5625 L 271.617188 202.632812 L 272.191406 202.957031 L 272.453125 203.035156 L 272.75 203.042969 L 273.324219 202.929688 L 274.378906 202.652344 L 274.65625 202.644531 L 274.851562 202.703125 L 274.921875 202.769531 L 274.910156 202.832031 L 274.847656 202.886719 Z M 274.738281 202.941406 " fill-opacity="1" fill-rule="evenodd"/><path fill="#ffffc7" d="M 265.988281 200.832031 L 265.242188 199.730469 L 274.804688 193.148438 L 275.097656 193.316406 L 275.386719 193.558594 L 275.761719 193.972656 L 276.175781 194.53125 L 276.59375 195.164062 L 276.988281 195.855469 L 277.617188 197.179688 L 277.820312 197.726562 L 277.917969 198.1875 L 277.9375 198.5625 L 277.878906 199.007812 L 277.75 199.460938 L 277.527344 199.96875 L 277.246094 200.445312 L 276.921875 200.878906 L 276.4375 201.398438 L 276.003906 201.757812 L 275.644531 201.980469 L 275.25 202.167969 L 274.816406 202.316406 L 274.210938 202.421875 L 273.292969 202.472656 L 271.628906 202.433594 L 269.808594 202.335938 L 268.898438 202.234375 L 268.171875 202.074219 L 267.460938 201.828125 L 266.898438 201.550781 L 266.410156 201.21875 Z M 265.988281 200.832031 " fill-opacity="1" fill-rule="evenodd"/><path fill="#f7f619" d="M 270.730469 196.128906 L 270.816406 196.082031 L 271.261719 195.957031 L 272.703125 195.65625 L 273.226562 195.480469 L 274.425781 194.929688 L 274.722656 194.84375 L 275 194.835938 L 275.246094 194.914062 L 275.476562 195.074219 L 275.863281 195.429688 L 276.113281 195.75 L 276.308594 196.09375 L 276.539062 196.625 L 276.585938 196.867188 L 276.554688 197.015625 L 276.492188 197.089844 L 276.296875 197.160156 L 275.867188 197.203125 L 275.117188 197.171875 L 274.617188 197.105469 L 273.105469 196.71875 L 272.480469 196.652344 L 271.785156 196.601562 L 271.019531 196.390625 L 270.730469 196.253906 L 270.699219 196.207031 L 270.703125 196.152344 Z M 270.730469 196.128906 " fill-opacity="1" fill-rule="evenodd"/><path fill="#f7f619" d="M 269.734375 197.140625 L 269.628906 197.195312 L 269.519531 197.246094 L 269.417969 197.300781 L 269.308594 197.351562 L 268.871094 197.585938 L 268.757812 197.652344 L 268.644531 197.714844 L 268.535156 197.785156 L 268.421875 197.851562 L 268.304688 197.921875 L 268.191406 197.996094 L 268.074219 198.070312 L 267.957031 198.140625 L 267.832031 198.21875 L 267.703125 198.292969 L 267.5625 198.367188 L 267.273438 198.515625 L 266.976562 198.671875 L 266.832031 198.75 L 266.691406 198.835938 L 266.558594 198.925781 L 266.433594 199.015625 L 266.316406 199.117188 L 266.214844 199.21875 L 266.125 199.328125 L 266.050781 199.445312 L 265.992188 199.566406 L 265.957031 199.691406 L 265.945312 199.804688 L 265.953125 199.914062 L 265.980469 200.007812 L 266.023438 200.101562 L 266.082031 200.1875 L 266.152344 200.269531 L 266.230469 200.347656 L 266.316406 200.417969 L 266.503906 200.550781 L 266.601562 200.617188 L 266.695312 200.675781 L 266.785156 200.734375 L 266.871094 200.796875 L 266.949219 200.855469 L 267.089844 200.972656 L 267.160156 201.019531 L 267.226562 201.066406 L 267.296875 201.113281 L 267.4375 201.191406 L 267.511719 201.226562 L 267.589844 201.261719 L 267.671875 201.296875 L 267.753906 201.328125 L 267.847656 201.363281 L 267.945312 201.394531 L 268.046875 201.429688 L 268.15625 201.460938 L 268.273438 201.492188 L 268.40625 201.53125 L 268.550781 201.574219 L 268.710938 201.613281 L 268.878906 201.660156 L 269.058594 201.703125 L 269.242188 201.746094 L 269.425781 201.785156 L 269.613281 201.828125 L 269.796875 201.863281 L 269.976562 201.894531 L 270.148438 201.925781 L 270.3125 201.945312 L 270.464844 201.964844 L 270.605469 201.972656 L 270.722656 201.972656 L 270.828125 201.964844 L 270.910156 201.949219 L 270.984375 201.929688 L 271.046875 201.902344 L 271.09375 201.871094 L 271.136719 201.835938 L 271.167969 201.792969 L 271.191406 201.746094 L 271.207031 201.695312 L 271.214844 201.636719 L 271.21875 201.574219 L 271.21875 201.507812 L 271.214844 201.433594 L 271.207031 201.351562 L 271.199219 201.265625 L 271.1875 201.175781 L 271.179688 201.078125 L 271.164062 200.96875 L 271.140625 200.851562 L 271.113281 200.722656 L 271.078125 200.582031 L 271.039062 200.433594 L 270.992188 200.28125 L 270.945312 200.125 L 270.898438 199.964844 L 270.84375 199.800781 L 270.789062 199.640625 L 270.738281 199.480469 L 270.683594 199.324219 L 270.628906 199.171875 L 270.578125 199.027344 L 270.527344 198.886719 L 270.480469 198.753906 L 270.433594 198.636719 L 270.386719 198.515625 L 270.34375 198.402344 L 270.25 198.175781 L 270.203125 198.070312 L 270.160156 197.964844 L 270.066406 197.761719 L 270.019531 197.664062 L 269.972656 197.574219 L 269.925781 197.480469 L 269.832031 197.308594 L 269.78125 197.226562 Z M 269.734375 197.140625 " fill-opacity="1" fill-rule="evenodd"/><path fill="#f7f619" d="M 270.683594 198.101562 L 271.78125 201.210938 L 271.984375 201.636719 L 272.152344 201.867188 L 272.300781 201.996094 L 272.460938 202.054688 L 273.105469 202.078125 L 273.863281 202.007812 L 274.433594 201.882812 L 274.769531 201.75 L 275.074219 201.5625 L 275.359375 201.34375 L 275.585938 201.117188 L 275.734375 200.886719 L 275.773438 200.691406 L 275.738281 200.605469 L 275.46875 200.382812 L 274.925781 200.019531 L 272.761719 198.757812 L 272.15625 198.339844 L 271.335938 197.632812 L 270.804688 197.15625 L 270.578125 197.007812 L 270.464844 196.988281 L 270.425781 197.015625 L 270.402344 197.160156 L 270.441406 197.480469 Z M 270.683594 198.101562 " fill-opacity="1" fill-rule="evenodd"/><path fill="#f7f619" d="M 271.28125 197.070312 L 272.238281 197.882812 L 273.488281 198.757812 L 274.566406 199.4375 L 275.0625 199.699219 L 275.621094 199.914062 L 275.984375 199.988281 L 276.25 199.96875 L 276.4375 199.878906 L 276.535156 199.777344 L 276.628906 199.558594 L 276.722656 199.152344 L 276.761719 198.523438 L 276.726562 198.144531 L 276.65625 197.96875 L 276.550781 197.871094 L 275.675781 197.644531 L 273.640625 197.261719 L 273.347656 197.160156 L 273.09375 196.996094 L 272.601562 196.882812 L 271.183594 196.671875 L 270.800781 196.574219 L 270.78125 196.605469 L 270.859375 196.714844 Z M 271.28125 197.070312 " fill-opacity="1" fill-rule="evenodd"/><path fill="#ffffc7" d="M 272.84375 197.796875 L 272.839844 197.816406 L 273.0625 198.019531 L 273.6875 198.445312 L 274.234375 198.722656 L 275.101562 199.058594 L 275.253906 199.089844 L 275.21875 199.039062 L 274.839844 198.730469 L 274.171875 198.308594 L 273.476562 197.996094 L 272.917969 197.804688 Z M 272.84375 197.796875 " fill-opacity="1" fill-rule="evenodd"/><path fill="#ffffc7" d="M 274.222656 197.804688 L 274.460938 197.832031 L 275.433594 198.125 L 275.847656 198.296875 L 275.90625 198.375 L 275.914062 198.457031 L 275.824219 198.578125 L 275.707031 198.628906 L 275.542969 198.625 L 275.214844 198.46875 L 274.5 198.035156 L 274.238281 197.835938 L 274.21875 197.808594 Z M 274.222656 197.804688 " fill-opacity="1" fill-rule="evenodd"/><path fill="#ffffc7" d="M 272.363281 196.246094 L 272.355469 196.25 L 272.984375 196.265625 L 273.496094 196.386719 L 274.058594 196.539062 L 273.878906 196.410156 L 273.441406 196.203125 L 273.167969 196.152344 L 272.628906 196.195312 Z M 272.363281 196.246094 " fill-opacity="1" fill-rule="evenodd"/><path fill="#ffffc7" d="M 273.296875 195.78125 L 274.03125 195.589844 L 274.820312 195.433594 L 274.851562 195.445312 L 274.75 195.519531 L 274.320312 195.707031 L 273.804688 195.78125 L 273.304688 195.796875 L 273.285156 195.785156 Z M 273.296875 195.78125 " fill-opacity="1" fill-rule="evenodd"/><path fill="#ffffc7" d="M 266.542969 199.542969 L 266.890625 199.296875 L 268.207031 198.472656 L 268.453125 198.34375 L 268.472656 198.355469 L 268.410156 198.457031 L 268.109375 198.746094 L 267.859375 198.910156 L 267.210938 199.253906 L 266.5625 199.546875 L 266.53125 199.550781 Z M 266.542969 199.542969 " fill-opacity="1" fill-rule="evenodd"/><path fill="#ffffc7" d="M 268.8125 198.449219 L 268.765625 198.484375 L 268.0625 199.507812 L 267.511719 200.265625 L 267.492188 200.328125 L 267.632812 200.242188 L 267.996094 199.929688 L 268.347656 199.554688 L 268.570312 199.144531 L 268.796875 198.535156 Z M 268.8125 198.449219 " fill-opacity="1" fill-rule="evenodd"/><path fill="#ffffc7" d="M 269.773438 198.21875 L 269.917969 198.457031 L 270.339844 199.269531 L 270.6875 200.050781 L 270.769531 200.417969 L 270.773438 200.683594 L 270.730469 200.78125 L 270.703125 200.769531 L 270.566406 200.566406 L 270.296875 200.019531 L 270.058594 199.367188 L 269.785156 198.414062 L 269.765625 198.214844 Z M 269.773438 198.21875 " fill-opacity="1" fill-rule="evenodd"/><path fill="#ffffc7" d="M 271.664062 199.375 L 271.886719 199.886719 L 272.492188 201.121094 L 272.550781 201.175781 L 272.5625 201.167969 L 272.539062 200.972656 L 272.417969 200.675781 L 271.789062 199.5625 L 271.660156 199.367188 Z M 271.664062 199.375 " fill-opacity="1" fill-rule="evenodd"/><path fill="#ffffc7" d="M 271.617188 198.601562 L 271.722656 198.746094 L 272.214844 199.28125 L 272.566406 199.59375 L 272.933594 199.816406 L 273.535156 200.074219 L 273.757812 200.132812 L 273.765625 200.128906 L 273.425781 199.871094 L 272.398438 199.175781 L 271.621094 198.59375 Z M 271.617188 198.601562 " fill-opacity="1" fill-rule="evenodd"/><g clip-path="url(#1f255fe5a2)"><path fill="#f9f980" d="M 265.132812 200.890625 L 265.054688 200.949219 L 264.949219 201.121094 L 264.933594 201.238281 L 265.140625 201.175781 L 265.246094 201.273438 L 265.347656 201.371094 L 265.398438 201.351562 L 265.5 201.167969 L 265.488281 201.058594 L 265.335938 200.945312 L 265.171875 200.886719 Z M 265.132812 200.890625 " fill-opacity="1" fill-rule="evenodd"/><path fill="#dbdb00" d="M 265.175781 200.777344 L 265.105469 200.824219 L 264.980469 201.039062 L 264.972656 201.117188 L 265.183594 201.0625 L 265.289062 201.160156 L 265.390625 201.257812 L 265.441406 201.238281 L 265.535156 201.066406 L 265.535156 200.957031 L 265.402344 200.847656 L 265.214844 200.777344 Z M 265.175781 200.777344 " fill-opacity="1" fill-rule="evenodd"/></g><path fill="#f9f980" d="M 271.011719 203.3125 L 271.007812 203.316406 L 271.101562 203.375 L 271.488281 203.445312 L 271.625 203.425781 L 271.6875 203.300781 L 271.683594 203.105469 L 271.636719 203.054688 L 271.421875 203.101562 L 271.078125 203.253906 L 271.011719 203.308594 L 271.015625 203.3125 Z M 271.011719 203.3125 " fill-opacity="1" fill-rule="evenodd"/><path fill="#dbdb00" d="M 271.066406 203.203125 L 271.0625 203.207031 L 271.15625 203.265625 L 271.542969 203.335938 L 271.675781 203.316406 L 271.742188 203.191406 L 271.742188 203.003906 L 271.703125 202.941406 L 271.5 202.976562 L 271.132812 203.144531 L 271.0625 203.199219 Z M 271.066406 203.203125 " fill-opacity="1" fill-rule="evenodd"/><path fill="#f9f980" d="M 267.621094 202.71875 L 267.621094 202.734375 L 267.628906 202.75 L 267.628906 202.753906 L 267.648438 202.773438 L 267.679688 202.789062 L 267.691406 202.789062 L 267.699219 202.792969 L 267.742188 202.792969 L 267.75 202.789062 L 267.761719 202.789062 L 267.769531 202.78125 L 267.78125 202.78125 L 267.789062 202.777344 L 267.804688 202.765625 L 267.808594 202.757812 L 267.820312 202.746094 L 267.824219 202.738281 L 267.824219 202.730469 L 267.828125 202.722656 L 267.828125 202.707031 L 267.824219 202.699219 L 267.824219 202.691406 L 267.820312 202.6875 L 267.8125 202.671875 L 267.804688 202.667969 L 267.796875 202.660156 L 267.792969 202.652344 L 267.785156 202.652344 L 267.773438 202.648438 L 267.765625 202.640625 L 267.75 202.640625 L 267.726562 202.632812 L 267.71875 202.636719 L 267.707031 202.636719 L 267.699219 202.640625 L 267.6875 202.640625 L 267.679688 202.644531 L 267.671875 202.652344 L 267.660156 202.652344 L 267.652344 202.660156 L 267.648438 202.667969 L 267.640625 202.671875 L 267.636719 202.679688 L 267.628906 202.6875 L 267.621094 202.703125 Z M 267.621094 202.71875 " fill-opacity="1" fill-rule="evenodd"/><path fill="#dbdb00" d="M 267.617188 202.679688 L 267.613281 202.6875 L 267.617188 202.699219 L 267.617188 202.707031 L 267.621094 202.710938 L 267.628906 202.726562 L 267.640625 202.738281 L 267.664062 202.75 L 267.675781 202.753906 L 267.683594 202.753906 L 267.691406 202.757812 L 267.703125 202.757812 L 267.714844 202.753906 L 267.726562 202.757812 L 267.734375 202.753906 L 267.746094 202.753906 L 267.761719 202.746094 L 267.773438 202.742188 L 267.78125 202.738281 L 267.792969 202.730469 L 267.800781 202.722656 L 267.804688 202.714844 L 267.8125 202.710938 L 267.8125 202.703125 L 267.816406 202.695312 L 267.816406 202.6875 L 267.820312 202.679688 L 267.820312 202.671875 L 267.816406 202.664062 L 267.820312 202.65625 L 267.816406 202.648438 L 267.808594 202.640625 L 267.804688 202.632812 L 267.800781 202.628906 L 267.792969 202.625 L 267.785156 202.617188 L 267.761719 202.605469 L 267.75 202.605469 L 267.742188 202.601562 L 267.699219 202.601562 L 267.6875 202.605469 L 267.679688 202.609375 L 267.667969 202.609375 L 267.660156 202.617188 L 267.644531 202.625 L 267.640625 202.632812 L 267.632812 202.636719 L 267.625 202.652344 L 267.621094 202.65625 L 267.617188 202.664062 Z M 267.617188 202.679688 " fill-opacity="1" fill-rule="evenodd"/><path fill="#f9f980" d="M 273.703125 202.972656 L 273.707031 202.980469 L 273.707031 202.988281 L 273.710938 202.996094 L 273.710938 203.003906 L 273.71875 203.011719 L 273.722656 203.019531 L 273.726562 203.023438 L 273.734375 203.027344 L 273.742188 203.035156 L 273.765625 203.046875 L 273.777344 203.046875 L 273.785156 203.050781 L 273.835938 203.050781 L 273.847656 203.046875 L 273.863281 203.039062 L 273.894531 203.019531 L 273.910156 202.988281 L 273.910156 202.976562 L 273.914062 202.96875 L 273.914062 202.964844 L 273.90625 202.949219 L 273.90625 202.941406 L 273.898438 202.925781 L 273.882812 202.917969 L 273.878906 202.910156 L 273.871094 202.910156 L 273.859375 202.902344 L 273.855469 202.898438 L 273.84375 202.898438 L 273.835938 202.894531 L 273.804688 202.894531 L 273.792969 202.898438 L 273.785156 202.898438 L 273.773438 202.902344 L 273.765625 202.90625 L 273.753906 202.910156 L 273.730469 202.921875 L 273.722656 202.929688 L 273.707031 202.960938 L 273.707031 202.964844 Z M 273.703125 202.972656 " fill-opacity="1" fill-rule="evenodd"/><path fill="#dbdb00" d="M 273.703125 202.933594 L 273.699219 202.945312 L 273.703125 202.953125 L 273.703125 202.960938 L 273.707031 202.964844 L 273.710938 202.976562 L 273.714844 202.984375 L 273.71875 202.988281 L 273.726562 202.992188 L 273.734375 203 L 273.75 203.007812 L 273.761719 203.011719 L 273.777344 203.011719 L 273.792969 203.015625 L 273.800781 203.011719 L 273.8125 203.015625 L 273.820312 203.011719 L 273.832031 203.011719 L 273.84375 203.007812 L 273.851562 203.003906 L 273.859375 203.003906 L 273.867188 202.996094 L 273.882812 202.988281 L 273.894531 202.976562 L 273.902344 202.960938 L 273.902344 202.953125 L 273.90625 202.945312 L 273.90625 202.910156 L 273.902344 202.90625 L 273.894531 202.890625 L 273.886719 202.886719 L 273.875 202.875 L 273.863281 202.871094 L 273.855469 202.863281 L 273.835938 202.863281 L 273.828125 202.859375 L 273.796875 202.859375 L 273.785156 202.863281 L 273.765625 202.863281 L 273.757812 202.867188 L 273.746094 202.871094 L 273.738281 202.875 L 273.714844 202.898438 L 273.703125 202.921875 Z M 273.703125 202.933594 " fill-opacity="1" fill-rule="evenodd"/><path fill="#f9f980" d="M 266.171875 201.894531 L 266.171875 201.921875 L 266.175781 201.9375 L 266.179688 201.949219 L 266.195312 201.972656 L 266.21875 201.996094 L 266.242188 202.011719 L 266.257812 202.015625 L 266.277344 202.023438 L 266.292969 202.027344 L 266.308594 202.035156 L 266.328125 202.03125 L 266.351562 202.03125 L 266.367188 202.035156 L 266.386719 202.03125 L 266.433594 202.019531 L 266.449219 202.011719 L 266.464844 202 L 266.492188 201.980469 L 266.5 201.972656 L 266.507812 201.960938 L 266.519531 201.949219 L 266.527344 201.933594 L 266.53125 201.921875 L 266.535156 201.90625 L 266.535156 201.878906 L 266.53125 201.863281 L 266.527344 201.851562 L 266.523438 201.835938 L 266.5 201.800781 L 266.476562 201.785156 L 266.445312 201.769531 L 266.433594 201.765625 L 266.414062 201.761719 L 266.398438 201.757812 L 266.378906 201.757812 L 266.359375 201.753906 L 266.339844 201.757812 L 266.320312 201.757812 L 266.304688 201.761719 L 266.285156 201.769531 L 266.269531 201.773438 L 266.238281 201.789062 L 266.214844 201.808594 L 266.203125 201.820312 L 266.179688 201.855469 L 266.175781 201.871094 L 266.171875 201.882812 Z M 266.171875 201.894531 " fill-opacity="1" fill-rule="evenodd"/><path fill="#dbdb00" d="M 266.15625 201.832031 L 266.160156 201.847656 L 266.160156 201.863281 L 266.164062 201.875 L 266.195312 201.921875 L 266.207031 201.933594 L 266.21875 201.941406 L 266.25 201.957031 L 266.296875 201.96875 L 266.355469 201.96875 L 266.371094 201.964844 L 266.390625 201.964844 L 266.40625 201.960938 L 266.425781 201.953125 L 266.441406 201.945312 L 266.453125 201.9375 L 266.46875 201.929688 L 266.511719 201.886719 L 266.519531 201.871094 L 266.523438 201.859375 L 266.523438 201.84375 L 266.527344 201.828125 L 266.527344 201.8125 L 266.519531 201.789062 L 266.511719 201.773438 L 266.507812 201.761719 L 266.496094 201.753906 L 266.488281 201.742188 L 266.472656 201.730469 L 266.464844 201.722656 L 266.433594 201.707031 L 266.402344 201.699219 L 266.34375 201.6875 L 266.328125 201.691406 L 266.308594 201.691406 L 266.292969 201.699219 L 266.273438 201.703125 L 266.257812 201.707031 L 266.242188 201.714844 L 266.230469 201.722656 L 266.214844 201.730469 L 266.203125 201.746094 L 266.183594 201.765625 L 266.175781 201.777344 L 266.167969 201.792969 L 266.164062 201.804688 L 266.160156 201.820312 Z M 266.15625 201.832031 " fill-opacity="1" fill-rule="evenodd"/><path fill="#f9f980" d="M 269.675781 203.136719 L 269.675781 203.164062 L 269.6875 203.1875 L 269.695312 203.191406 L 269.699219 203.199219 L 269.714844 203.207031 L 269.726562 203.210938 L 269.742188 203.21875 L 269.753906 203.21875 L 269.761719 203.222656 L 269.773438 203.21875 L 269.785156 203.222656 L 269.792969 203.21875 L 269.804688 203.214844 L 269.8125 203.214844 L 269.824219 203.210938 L 269.832031 203.207031 L 269.855469 203.191406 L 269.863281 203.175781 L 269.871094 203.171875 L 269.871094 203.164062 L 269.878906 203.148438 L 269.878906 203.125 L 269.875 203.117188 L 269.875 203.109375 L 269.859375 203.089844 L 269.851562 203.082031 L 269.84375 203.078125 L 269.839844 203.074219 L 269.828125 203.070312 L 269.820312 203.066406 L 269.808594 203.066406 L 269.800781 203.0625 L 269.785156 203.0625 L 269.777344 203.058594 L 269.769531 203.0625 L 269.757812 203.0625 L 269.75 203.066406 L 269.738281 203.066406 L 269.730469 203.074219 L 269.71875 203.074219 L 269.699219 203.089844 L 269.695312 203.097656 L 269.683594 203.109375 L 269.679688 203.117188 L 269.679688 203.125 L 269.675781 203.132812 Z M 269.675781 203.136719 " fill-opacity="1" fill-rule="evenodd"/><path fill="#dbdb00" d="M 269.667969 203.105469 L 269.667969 203.121094 L 269.671875 203.128906 L 269.671875 203.136719 L 269.703125 203.167969 L 269.710938 203.167969 L 269.71875 203.175781 L 269.726562 203.179688 L 269.746094 203.179688 L 269.757812 203.183594 L 269.785156 203.183594 L 269.796875 203.179688 L 269.808594 203.179688 L 269.832031 203.167969 L 269.863281 203.136719 L 269.871094 203.121094 L 269.871094 203.109375 L 269.875 203.101562 L 269.871094 203.09375 L 269.871094 203.085938 L 269.867188 203.082031 L 269.867188 203.074219 L 269.855469 203.058594 L 269.839844 203.042969 L 269.828125 203.039062 L 269.8125 203.03125 L 269.804688 203.03125 L 269.792969 203.027344 L 269.785156 203.027344 L 269.773438 203.023438 L 269.765625 203.027344 L 269.753906 203.027344 L 269.746094 203.03125 L 269.734375 203.03125 L 269.722656 203.039062 L 269.714844 203.042969 L 269.707031 203.042969 L 269.691406 203.054688 L 269.6875 203.0625 L 269.675781 203.074219 L 269.667969 203.089844 Z M 269.667969 203.105469 " fill-opacity="1" fill-rule="evenodd"/><path fill="#f7f619" d="M 271.238281 195.605469 L 274.285156 193.503906 L 274.53125 193.519531 L 274.761719 193.621094 L 275.265625 194.003906 L 275.417969 194.179688 L 275.445312 194.289062 L 275.402344 194.375 L 275.183594 194.46875 L 274.125 194.660156 L 273.597656 194.757812 L 273.160156 194.917969 L 272.257812 195.351562 L 271.734375 195.523438 L 271.285156 195.605469 Z M 271.238281 195.605469 " fill-opacity="1" fill-rule="evenodd"/><path fill="#ffffc7" d="M 272.863281 194.613281 L 273.316406 194.390625 L 274.324219 193.96875 L 274.339844 193.984375 L 274.203125 194.121094 L 273.886719 194.328125 L 273.53125 194.46875 L 272.894531 194.628906 L 272.855469 194.621094 Z M 272.863281 194.613281 " fill-opacity="1" fill-rule="evenodd"/><g clip-path="url(#05ac61187a)"><path fill="#ffffff" d="M 274.324219 163.648438 C 274.261719 163.757812 274.15625 163.832031 274.011719 163.808594 C 273.902344 163.792969 273.800781 163.714844 273.765625 163.601562 C 273.726562 163.457031 273.796875 163.308594 273.8125 163.167969 C 273.820312 163.074219 273.804688 162.964844 273.746094 162.890625 C 273.683594 162.804688 273.589844 162.800781 273.496094 162.832031 C 273.246094 162.910156 273.003906 162.925781 272.867188 162.660156 C 272.820312 162.566406 272.785156 162.464844 272.722656 162.382812 C 272.65625 162.300781 272.550781 162.242188 272.457031 162.277344 C 272.308594 162.328125 272.292969 162.542969 272.183594 162.660156 C 272.105469 162.742188 271.984375 162.769531 271.871094 162.75 C 271.667969 162.71875 271.53125 162.550781 271.355469 162.753906 C 271.292969 162.828125 271.25 162.914062 271.179688 162.976562 C 271.164062 162.992188 271.144531 163.003906 271.121094 163.007812 C 271.066406 163.019531 271.019531 162.953125 271.011719 162.894531 C 271.003906 162.835938 271.015625 162.777344 271.007812 162.71875 C 270.980469 162.558594 270.773438 162.488281 270.636719 162.558594 C 270.5 162.628906 270.425781 162.792969 270.40625 162.953125 C 270.378906 163.199219 270.410156 163.457031 270.476562 163.691406 C 270.550781 163.957031 270.710938 164.238281 270.652344 164.523438 C 270.628906 164.640625 270.570312 164.753906 270.464844 164.8125 C 270.363281 164.871094 270.242188 164.851562 270.144531 164.796875 C 269.90625 164.660156 269.808594 164.359375 269.828125 164.089844 C 269.851562 163.796875 270.011719 163.546875 270.085938 163.273438 C 270.144531 163.050781 270.15625 162.769531 269.984375 162.597656 C 269.863281 162.476562 269.648438 162.417969 269.503906 162.535156 C 269.332031 162.679688 269.390625 162.949219 269.296875 163.136719 C 269.207031 163.320312 268.949219 163.355469 268.800781 163.222656 C 268.679688 163.113281 268.691406 162.820312 268.492188 162.808594 C 268.425781 162.804688 268.371094 162.808594 268.347656 162.734375 C 268.332031 162.683594 268.328125 162.632812 268.335938 162.582031 C 268.335938 162.570312 268.332031 162.566406 268.324219 162.5625 C 268.238281 162.539062 268.160156 162.574219 268.101562 162.640625 C 267.910156 162.84375 267.980469 163.226562 267.667969 163.328125 C 267.503906 163.378906 267.3125 163.273438 267.265625 163.101562 C 267.222656 162.949219 267.289062 162.773438 267.230469 162.625 C 267.167969 162.464844 266.957031 162.394531 266.820312 162.488281 C 266.757812 162.527344 266.710938 162.59375 266.65625 162.644531 C 266.597656 162.691406 266.515625 162.726562 266.453125 162.6875 C 266.386719 162.652344 266.367188 162.566406 266.3125 162.515625 C 266.171875 162.394531 266.042969 162.59375 265.996094 162.707031 C 265.945312 162.832031 265.898438 162.953125 265.847656 163.078125 C 265.800781 163.195312 265.761719 163.320312 265.703125 163.433594 C 265.644531 163.539062 265.546875 163.597656 265.425781 163.578125 C 265.164062 163.535156 265.082031 163.222656 265.046875 162.988281 C 264.96875 162.5 265.039062 162.136719 265.523438 161.980469 C 268.144531 161.121094 271.066406 161.378906 273.769531 161.558594 C 274.054688 161.578125 274.367188 161.699219 274.476562 161.972656 C 274.566406 162.191406 274.503906 162.421875 274.449219 162.636719 C 274.417969 162.753906 274.394531 162.867188 274.382812 162.988281 C 274.375 163.109375 274.394531 163.226562 274.398438 163.34375 C 274.402344 163.453125 274.378906 163.554688 274.324219 163.648438 Z M 274.324219 163.648438 " fill-opacity="1" fill-rule="nonzero"/></g><g clip-path="url(#36285cb0b1)"><path fill="#000000" d="M 274.382812 163.507812 L 274.375 163.519531 C 274.304688 163.632812 274.136719 163.722656 274.019531 163.628906 C 273.917969 163.550781 273.921875 163.40625 273.925781 163.289062 C 273.933594 163.164062 273.957031 163.023438 273.910156 162.902344 C 273.886719 162.835938 273.847656 162.785156 273.785156 162.753906 C 273.71875 162.71875 273.644531 162.71875 273.570312 162.730469 C 273.410156 162.75 273.242188 162.820312 273.085938 162.738281 C 273.011719 162.699219 272.957031 162.640625 272.917969 162.5625 C 272.882812 162.480469 272.882812 162.382812 272.835938 162.304688 C 272.765625 162.191406 272.625 162.136719 272.5 162.15625 C 272.433594 162.164062 272.375 162.191406 272.328125 162.238281 C 272.277344 162.292969 272.242188 162.363281 272.207031 162.429688 C 272.175781 162.492188 272.140625 162.558594 272.089844 162.605469 C 272.03125 162.660156 271.957031 162.671875 271.886719 162.667969 C 271.742188 162.65625 271.589844 162.578125 271.449219 162.625 C 271.378906 162.652344 271.324219 162.707031 271.269531 162.757812 C 271.21875 162.800781 271.15625 162.851562 271.09375 162.808594 C 271.042969 162.773438 271.035156 162.695312 271.027344 162.636719 C 271.015625 162.570312 271.007812 162.5 270.964844 162.445312 C 270.875 162.332031 270.703125 162.363281 270.597656 162.429688 C 270.464844 162.507812 270.375 162.65625 270.324219 162.804688 C 270.238281 163.050781 270.265625 163.3125 270.339844 163.554688 C 270.378906 163.675781 270.425781 163.792969 270.476562 163.90625 C 270.53125 164.03125 270.65625 164.371094 270.613281 164.507812 C 270.554688 164.695312 270.273438 164.75 270.097656 164.546875 C 269.992188 164.421875 269.996094 164.164062 269.984375 164.007812 C 269.980469 163.929688 269.976562 163.847656 269.980469 163.765625 C 269.980469 163.703125 269.96875 163.597656 269.992188 163.539062 C 269.921875 163.714844 269.84375 163.894531 269.828125 164.089844 C 269.8125 164.359375 269.90625 164.660156 270.144531 164.796875 C 270.242188 164.855469 270.363281 164.871094 270.464844 164.8125 C 270.570312 164.757812 270.628906 164.640625 270.652344 164.523438 C 270.710938 164.238281 270.550781 163.957031 270.476562 163.691406 C 270.410156 163.457031 270.378906 163.199219 270.40625 162.953125 C 270.425781 162.796875 270.5 162.628906 270.636719 162.558594 C 270.777344 162.484375 270.980469 162.558594 271.007812 162.714844 C 271.015625 162.777344 271.003906 162.835938 271.011719 162.894531 C 271.019531 162.953125 271.066406 163.015625 271.121094 163.007812 C 271.144531 163 271.164062 162.992188 271.179688 162.972656 C 271.25 162.910156 271.296875 162.824219 271.355469 162.753906 C 271.53125 162.550781 271.667969 162.71875 271.871094 162.75 C 271.984375 162.765625 272.105469 162.742188 272.183594 162.65625 C 272.292969 162.539062 272.308594 162.328125 272.457031 162.273438 C 272.550781 162.242188 272.65625 162.300781 272.722656 162.382812 C 272.785156 162.464844 272.820312 162.566406 272.867188 162.65625 C 273.007812 162.925781 273.25 162.90625 273.496094 162.828125 C 273.589844 162.800781 273.683594 162.800781 273.75 162.886719 C 273.804688 162.964844 273.820312 163.070312 273.8125 163.164062 C 273.796875 163.308594 273.726562 163.453125 273.769531 163.597656 C 273.800781 163.710938 273.902344 163.792969 274.011719 163.808594 C 274.15625 163.832031 274.261719 163.757812 274.328125 163.648438 C 274.351562 163.605469 274.371094 163.558594 274.382812 163.507812 Z M 274.382812 163.507812 " fill-opacity="1" fill-rule="nonzero"/></g><g clip-path="url(#74d869c366)"><path fill="#000000" d="M 269.984375 162.601562 C 270.054688 162.671875 270.097656 162.757812 270.113281 162.855469 C 270.113281 162.828125 270.113281 162.800781 270.109375 162.773438 C 270.078125 162.578125 269.972656 162.453125 269.789062 162.398438 C 269.621094 162.347656 269.4375 162.429688 269.332031 162.574219 C 269.273438 162.65625 269.253906 162.757812 269.246094 162.859375 C 269.234375 162.964844 269.226562 163.078125 269.152344 163.15625 C 269.074219 163.238281 268.960938 163.207031 268.890625 163.132812 C 268.8125 163.050781 268.785156 162.941406 268.734375 162.847656 C 268.710938 162.804688 268.683594 162.769531 268.640625 162.742188 C 268.609375 162.722656 268.570312 162.707031 268.535156 162.691406 C 268.503906 162.675781 268.464844 162.65625 268.449219 162.621094 C 268.429688 162.574219 268.457031 162.519531 268.441406 162.46875 C 268.414062 162.382812 268.316406 162.359375 268.242188 162.375 C 268.167969 162.386719 268.105469 162.4375 268.058594 162.5 C 267.953125 162.640625 267.925781 162.820312 267.839844 162.976562 C 267.796875 163.046875 267.742188 163.121094 267.667969 163.152344 C 267.585938 163.183594 267.515625 163.167969 267.453125 163.109375 C 267.390625 163.054688 267.359375 162.972656 267.339844 162.890625 C 267.320312 162.800781 267.324219 162.710938 267.320312 162.617188 C 267.316406 162.527344 267.292969 162.4375 267.214844 162.386719 C 267.140625 162.335938 267.046875 162.347656 266.964844 162.375 C 266.871094 162.40625 266.792969 162.464844 266.699219 162.507812 C 266.652344 162.53125 266.597656 162.542969 266.542969 162.546875 C 266.492188 162.542969 266.445312 162.523438 266.40625 162.492188 C 266.371094 162.464844 266.335938 162.433594 266.292969 162.421875 C 266.242188 162.414062 266.199219 162.421875 266.15625 162.449219 C 266.078125 162.496094 266.019531 162.5625 265.976562 162.644531 C 265.878906 162.8125 265.832031 163.007812 265.699219 163.152344 C 265.632812 163.21875 265.550781 163.269531 265.457031 163.269531 C 265.410156 163.265625 265.367188 163.25 265.328125 163.222656 C 265.332031 163.214844 265.328125 163.210938 265.324219 163.203125 C 265.121094 163 265.136719 162.648438 265.289062 162.417969 C 265.464844 162.152344 265.777344 162.027344 266.070312 161.972656 C 266.25 161.941406 266.4375 161.929688 266.621094 161.910156 C 266.796875 161.894531 266.96875 161.871094 267.144531 161.835938 C 267.492188 161.761719 267.839844 161.664062 268.195312 161.632812 C 268.375 161.617188 268.554688 161.621094 268.734375 161.648438 C 268.910156 161.675781 269.085938 161.722656 269.265625 161.753906 C 269.605469 161.8125 269.960938 161.820312 270.300781 161.75 C 270.636719 161.679688 270.945312 161.5 271.285156 161.445312 C 271.597656 161.394531 271.910156 161.46875 272.210938 161.546875 C 272.503906 161.617188 272.796875 161.703125 273.097656 161.699219 C 273.246094 161.695312 273.390625 161.664062 273.53125 161.609375 C 273.578125 161.589844 273.625 161.570312 273.671875 161.550781 C 270.996094 161.371094 268.113281 161.128906 265.523438 161.980469 C 265.039062 162.136719 264.96875 162.5 265.046875 162.988281 C 265.082031 163.222656 265.164062 163.535156 265.425781 163.578125 C 265.546875 163.597656 265.644531 163.539062 265.703125 163.433594 C 265.761719 163.320312 265.800781 163.195312 265.847656 163.078125 C 265.898438 162.953125 265.945312 162.832031 265.996094 162.707031 C 266.042969 162.59375 266.171875 162.394531 266.3125 162.515625 C 266.371094 162.566406 266.390625 162.652344 266.453125 162.6875 C 266.515625 162.726562 266.597656 162.691406 266.65625 162.644531 C 266.710938 162.59375 266.757812 162.53125 266.820312 162.488281 C 266.957031 162.394531 267.171875 162.464844 267.230469 162.628906 C 267.289062 162.777344 267.222656 162.949219 267.265625 163.101562 C 267.3125 163.273438 267.503906 163.382812 267.667969 163.328125 C 267.984375 163.230469 267.910156 162.84375 268.101562 162.640625 C 268.160156 162.578125 268.238281 162.539062 268.324219 162.5625 C 268.332031 162.566406 268.335938 162.570312 268.335938 162.582031 C 268.332031 162.632812 268.332031 162.683594 268.347656 162.734375 C 268.371094 162.808594 268.425781 162.804688 268.492188 162.808594 C 268.691406 162.820312 268.679688 163.113281 268.800781 163.226562 C 268.949219 163.355469 269.207031 163.320312 269.296875 163.136719 C 269.390625 162.949219 269.332031 162.679688 269.507812 162.535156 C 269.648438 162.417969 269.863281 162.476562 269.984375 162.601562 Z M 269.984375 162.601562 " fill-opacity="1" fill-rule="nonzero"/></g><g clip-path="url(#b0ba5a2001)"><path fill="#000000" d="M 274.304688 161.746094 C 274.296875 161.820312 274.261719 161.890625 274.246094 161.964844 C 274.222656 162.070312 274.230469 162.175781 274.25 162.277344 C 274.269531 162.386719 274.292969 162.496094 274.316406 162.605469 L 274.390625 162.9375 C 274.402344 162.835938 274.421875 162.734375 274.449219 162.636719 C 274.503906 162.421875 274.5625 162.191406 274.476562 161.972656 C 274.441406 161.878906 274.382812 161.804688 274.304688 161.746094 Z M 274.304688 161.746094 " fill-opacity="1" fill-rule="nonzero"/></g><g clip-path="url(#15d102be47)"><path fill="#ffffff" d="M 270.527344 164.292969 C 270.519531 164.128906 270.398438 163.984375 270.347656 163.835938 C 270.257812 163.578125 270.203125 163.328125 270.21875 163.054688 C 270.210938 163.183594 270.167969 163.3125 270.167969 163.441406 C 270.167969 163.578125 270.1875 163.710938 270.230469 163.839844 C 270.265625 163.953125 270.3125 164.0625 270.351562 164.171875 C 270.371094 164.222656 270.390625 164.296875 270.363281 164.351562 C 270.335938 164.402344 270.28125 164.398438 270.230469 164.386719 C 270.210938 164.382812 270.195312 164.386719 270.179688 164.394531 C 270.15625 164.414062 270.164062 164.449219 270.175781 164.472656 C 270.195312 164.515625 270.226562 164.546875 270.273438 164.5625 C 270.414062 164.621094 270.507812 164.480469 270.523438 164.347656 C 270.527344 164.332031 270.527344 164.3125 270.527344 164.292969 Z M 270.527344 164.292969 " fill-opacity="1" fill-rule="nonzero"/></g><path fill="#ffffff" d="M 270.074219 162.382812 C 269.996094 162.242188 269.796875 162.191406 269.652344 162.203125 C 269.496094 162.21875 269.28125 162.320312 269.242188 162.496094 C 269.253906 162.492188 269.265625 162.484375 269.277344 162.476562 C 269.371094 162.417969 269.464844 162.347656 269.570312 162.316406 C 269.664062 162.289062 269.757812 162.292969 269.851562 162.328125 C 269.910156 162.351562 269.964844 162.386719 270.007812 162.433594 C 270.03125 162.457031 270.050781 162.484375 270.066406 162.515625 C 270.074219 162.527344 270.105469 162.550781 270.105469 162.566406 C 270.105469 162.566406 270.105469 162.5 270.105469 162.492188 C 270.101562 162.453125 270.09375 162.417969 270.074219 162.382812 Z M 270.074219 162.382812 " fill-opacity="1" fill-rule="nonzero"/><path fill="#ffffff" d="M 269.167969 162.726562 C 269.136719 162.765625 269.105469 162.804688 269.074219 162.84375 C 269.058594 162.859375 269.042969 162.871094 269.027344 162.878906 C 268.992188 162.886719 268.964844 162.878906 268.945312 162.851562 C 268.914062 162.8125 268.90625 162.757812 268.886719 162.710938 C 268.871094 162.664062 268.84375 162.625 268.804688 162.59375 C 268.785156 162.578125 268.761719 162.566406 268.738281 162.5625 C 268.714844 162.558594 268.691406 162.546875 268.671875 162.535156 C 268.636719 162.507812 268.621094 162.464844 268.601562 162.425781 C 268.585938 162.382812 268.5625 162.347656 268.53125 162.3125 C 268.496094 162.277344 268.457031 162.257812 268.410156 162.246094 C 268.296875 162.222656 268.183594 162.28125 268.101562 162.363281 C 268.085938 162.378906 268.292969 162.195312 268.46875 162.363281 C 268.539062 162.429688 268.515625 162.550781 268.589844 162.617188 C 268.625 162.644531 268.667969 162.640625 268.710938 162.65625 C 268.746094 162.667969 268.773438 162.695312 268.792969 162.734375 C 268.835938 162.8125 268.84375 162.910156 268.894531 162.984375 C 268.914062 163.015625 268.9375 163.035156 268.964844 163.050781 C 268.996094 163.066406 269.023438 163.066406 269.054688 163.054688 C 269.089844 163.035156 269.109375 163 269.125 162.960938 C 269.15625 162.886719 269.167969 162.804688 269.167969 162.722656 Z M 269.167969 162.726562 " fill-opacity="1" fill-rule="nonzero"/><path fill="#ffffff" d="M 267.785156 162.78125 C 267.734375 162.832031 267.671875 162.867188 267.617188 162.835938 C 267.589844 162.820312 267.570312 162.800781 267.558594 162.773438 C 267.523438 162.714844 267.5 162.652344 267.488281 162.585938 C 267.476562 162.523438 267.449219 162.46875 267.410156 162.421875 C 267.367188 162.375 267.285156 162.320312 267.222656 162.316406 L 267.28125 162.386719 C 267.347656 162.464844 267.390625 162.539062 267.402344 162.644531 C 267.421875 162.785156 267.429688 163.039062 267.625 163.027344 C 267.695312 163.023438 267.757812 162.96875 267.796875 162.90625 C 267.835938 162.839844 267.851562 162.765625 267.867188 162.691406 C 267.84375 162.722656 267.816406 162.753906 267.785156 162.78125 Z M 267.785156 162.78125 " fill-opacity="1" fill-rule="nonzero"/><path fill="#ffffff" d="M 266.121094 162.300781 C 266.082031 162.324219 266.046875 162.347656 266.015625 162.378906 C 265.964844 162.425781 265.917969 162.476562 265.878906 162.535156 C 265.859375 162.558594 265.839844 162.585938 265.820312 162.617188 C 265.773438 162.6875 265.730469 162.765625 265.6875 162.839844 C 265.636719 162.933594 265.5625 163.058594 265.4375 163.03125 C 265.347656 163.011719 265.300781 162.917969 265.285156 162.832031 C 265.269531 162.738281 265.277344 162.644531 265.3125 162.554688 C 265.304688 162.570312 265.289062 162.582031 265.28125 162.597656 C 265.269531 162.613281 265.261719 162.628906 265.257812 162.648438 C 265.246094 162.691406 265.242188 162.730469 265.246094 162.773438 C 265.25 162.875 265.273438 162.996094 265.34375 163.070312 C 265.453125 163.1875 265.625 163.117188 265.714844 163.011719 C 265.761719 162.949219 265.796875 162.882812 265.824219 162.8125 C 265.863281 162.703125 265.917969 162.601562 265.980469 162.503906 C 266.011719 162.457031 266.050781 162.410156 266.09375 162.371094 C 266.148438 162.324219 266.175781 162.289062 266.277344 162.269531 C 266.265625 162.273438 266.253906 162.273438 266.242188 162.269531 C 266.222656 162.273438 266.203125 162.273438 266.183594 162.277344 C 266.164062 162.285156 266.140625 162.292969 266.121094 162.300781 Z M 266.121094 162.300781 " fill-opacity="1" fill-rule="nonzero"/><path fill="#ffffff" d="M 271.59375 162.484375 C 271.578125 162.488281 271.539062 162.476562 271.527344 162.476562 C 271.496094 162.476562 271.464844 162.480469 271.433594 162.484375 C 271.382812 162.492188 271.335938 162.519531 271.285156 162.53125 C 271.222656 162.546875 271.195312 162.492188 271.160156 162.453125 C 271.101562 162.390625 271.035156 162.324219 270.957031 162.285156 C 270.953125 162.28125 270.886719 162.269531 270.890625 162.273438 C 270.925781 162.324219 270.984375 162.347656 271.023438 162.390625 C 271.085938 162.457031 271.078125 162.535156 271.082031 162.621094 C 271.085938 162.664062 271.101562 162.726562 271.152344 162.738281 C 271.171875 162.742188 271.191406 162.738281 271.207031 162.726562 C 271.269531 162.683594 271.308594 162.617188 271.375 162.574219 C 271.441406 162.535156 271.519531 162.519531 271.59375 162.484375 Z M 271.59375 162.484375 " fill-opacity="1" fill-rule="nonzero"/><path fill="#ffffff" d="M 273.648438 162.5625 L 273.410156 162.53125 C 273.328125 162.523438 273.242188 162.511719 273.167969 162.46875 C 273.035156 162.382812 273.023438 162.191406 272.902344 162.09375 C 272.765625 161.980469 272.570312 161.976562 272.417969 162.054688 C 272.292969 162.117188 272.121094 162.398438 272.117188 162.40625 C 272.121094 162.394531 272.164062 162.363281 272.175781 162.347656 C 272.222656 162.296875 272.269531 162.25 272.320312 162.203125 C 272.4375 162.101562 272.609375 162.042969 272.761719 162.085938 C 272.820312 162.101562 272.871094 162.136719 272.90625 162.191406 C 272.953125 162.273438 272.949219 162.375 272.976562 162.464844 C 273.003906 162.5625 273.070312 162.625 273.167969 162.644531 C 273.273438 162.664062 273.390625 162.640625 273.492188 162.613281 C 273.53125 162.605469 273.570312 162.59375 273.609375 162.582031 C 273.617188 162.578125 273.644531 162.5625 273.648438 162.5625 Z M 273.648438 162.5625 " fill-opacity="1" fill-rule="nonzero"/><g clip-path="url(#197c9c23b7)"><path fill="#ffffff" d="M 274.332031 163.226562 C 274.332031 163.207031 274.328125 163.1875 274.328125 163.167969 C 274.324219 163.121094 274.300781 163.019531 274.335938 162.980469 C 274.265625 163.054688 274.226562 163.148438 274.214844 163.253906 C 274.210938 163.277344 274.207031 163.308594 274.183594 163.320312 C 274.167969 163.324219 274.152344 163.320312 274.136719 163.308594 C 274.128906 163.292969 274.117188 163.277344 274.113281 163.261719 C 274.082031 163.164062 274.09375 163.054688 274.054688 162.960938 C 274.023438 162.886719 273.972656 162.820312 273.925781 162.75 C 273.988281 162.847656 274.007812 162.96875 274.007812 163.082031 C 274.007812 163.140625 274.003906 163.199219 274 163.253906 C 273.988281 163.320312 273.972656 163.382812 273.988281 163.445312 C 274 163.503906 274.03125 163.542969 274.082031 163.570312 C 274.132812 163.59375 274.179688 163.59375 274.230469 163.5625 C 274.289062 163.527344 274.320312 163.449219 274.328125 163.382812 C 274.332031 163.332031 274.335938 163.277344 274.332031 163.226562 Z M 274.332031 163.226562 " fill-opacity="1" fill-rule="nonzero"/></g><g clip-path="url(#4a069fef4c)"><path fill="#ffffff" d="M 271.480469 161.492188 C 271.367188 161.484375 271.257812 161.503906 271.152344 161.550781 C 271.03125 161.601562 270.925781 161.675781 270.808594 161.734375 C 270.4375 161.917969 270.019531 161.921875 269.621094 161.878906 C 269.597656 161.875 270.164062 162.066406 270.441406 161.992188 C 270.625 161.941406 270.792969 161.835938 270.957031 161.738281 C 271.152344 161.617188 271.414062 161.492188 271.648438 161.515625 C 271.59375 161.503906 271.535156 161.496094 271.480469 161.492188 Z M 271.480469 161.492188 " fill-opacity="1" fill-rule="nonzero"/></g><g clip-path="url(#a86609438d)"><path fill="#ffffff" d="M 267.800781 161.792969 C 267.6875 161.8125 267.582031 161.816406 267.472656 161.847656 C 267.355469 161.882812 267.242188 161.925781 267.128906 161.96875 C 266.9375 162.035156 266.71875 162.007812 266.519531 162.003906 C 266.304688 162 266.089844 162 265.882812 162.066406 C 266.144531 162.042969 266.40625 162.078125 266.667969 162.089844 C 266.796875 162.09375 266.929688 162.074219 267.054688 162.03125 C 267.304688 161.957031 267.539062 161.835938 267.800781 161.792969 Z M 267.800781 161.792969 " fill-opacity="1" fill-rule="nonzero"/></g><g clip-path="url(#d0e1270c2d)"><path fill="#ffffff" d="M 274.0625 161.714844 C 274.011719 161.675781 273.945312 161.664062 273.882812 161.660156 C 273.796875 161.660156 273.714844 161.667969 273.628906 161.683594 C 273.535156 161.703125 273.445312 161.730469 273.355469 161.773438 C 273.386719 161.757812 273.425781 161.769531 273.457031 161.769531 C 273.5 161.765625 273.539062 161.761719 273.578125 161.761719 C 273.648438 161.757812 273.730469 161.75 273.800781 161.769531 C 273.871094 161.785156 273.972656 161.816406 274.007812 161.890625 C 274.023438 161.917969 274.035156 162.171875 274.097656 162.121094 C 274.113281 162.109375 274.109375 162.039062 274.109375 162.019531 C 274.113281 161.976562 274.117188 161.933594 274.121094 161.894531 C 274.128906 161.824219 274.117188 161.757812 274.0625 161.714844 Z M 274.0625 161.714844 " fill-opacity="1" fill-rule="nonzero"/></g></svg>