<svg xmlns="http://www.w3.org/2000/svg" xmlns:xlink="http://www.w3.org/1999/xlink" width="500" zoomAndPan="magnify" viewBox="0 0 375 374.999991" height="500" preserveAspectRatio="xMidYMid meet" version="1.0"><defs><g/><clipPath id="ddcb75e728"><path d="M 111 143.339844 L 127 143.339844 L 127 165 L 111 165 Z M 111 143.339844 " clip-rule="nonzero"/></clipPath><clipPath id="f4037f3383"><path d="M 111 143.339844 L 120 143.339844 L 120 165 L 111 165 Z M 111 143.339844 " clip-rule="nonzero"/></clipPath><clipPath id="05556bc782"><path d="M 135 143.339844 L 151 143.339844 L 151 165 L 135 165 Z M 135 143.339844 " clip-rule="nonzero"/></clipPath><clipPath id="8f54da7962"><path d="M 142 143.339844 L 151 143.339844 L 151 165 L 142 165 Z M 142 143.339844 " clip-rule="nonzero"/></clipPath></defs><g fill="#ffffff" fill-opacity="1"><g transform="translate(24.67222, 199.499987)"><g><path d="M 2.734375 -37.6875 L 13.65625 -37.6875 C 18.894531 -37.6875 23.375 -35.894531 27.09375 -32.3125 C 30.8125 -28.738281 32.671875 -24.257812 32.671875 -18.875 C 32.671875 -13.445312 30.816406 -8.941406 27.109375 -5.359375 C 23.410156 -1.785156 18.925781 0 13.65625 0 L 2.734375 0 Z M 11.328125 -7.671875 L 12.65625 -7.671875 C 15.789062 -7.671875 18.351562 -8.726562 20.34375 -10.84375 C 22.34375 -12.96875 23.359375 -15.628906 23.390625 -18.828125 C 23.390625 -22.023438 22.390625 -24.6875 20.390625 -26.8125 C 18.398438 -28.945312 15.820312 -30.015625 12.65625 -30.015625 L 11.328125 -30.015625 Z M 11.328125 -7.671875 "/></g></g></g><g fill="#ffffff" fill-opacity="1"><g transform="translate(58.383788, 199.499987)"><g><path d="M 1.046875 -18.875 C 1.046875 -24.320312 2.90625 -28.929688 6.625 -32.703125 C 10.34375 -36.484375 14.820312 -38.375 20.0625 -38.375 C 25.320312 -38.375 29.796875 -36.492188 33.484375 -32.734375 C 37.171875 -28.972656 39.015625 -24.351562 39.015625 -18.875 C 39.015625 -13.351562 37.203125 -8.710938 33.578125 -4.953125 C 29.953125 -1.191406 25.445312 0.6875 20.0625 0.6875 C 14.539062 0.6875 9.988281 -1.175781 6.40625 -4.90625 C 2.832031 -8.644531 1.046875 -13.300781 1.046875 -18.875 Z M 10.328125 -18.875 C 10.328125 -16.894531 10.628906 -15.085938 11.234375 -13.453125 C 11.847656 -11.828125 12.914062 -10.445312 14.4375 -9.3125 C 15.957031 -8.1875 17.832031 -7.625 20.0625 -7.625 C 23.257812 -7.625 25.671875 -8.71875 27.296875 -10.90625 C 28.929688 -13.101562 29.75 -15.757812 29.75 -18.875 C 29.75 -21.945312 28.914062 -24.585938 27.25 -26.796875 C 25.59375 -29.003906 23.195312 -30.109375 20.0625 -30.109375 C 16.945312 -30.109375 14.546875 -29.003906 12.859375 -26.796875 C 11.171875 -24.585938 10.328125 -21.945312 10.328125 -18.875 Z M 10.328125 -18.875 "/></g></g></g><g fill="#ffffff" fill-opacity="1"><g transform="translate(98.444825, 199.499987)"><g/></g></g><g fill="#ffffff" fill-opacity="1"><g transform="translate(110.915359, 199.499987)"><g><path d="M 1.046875 -18.875 C 1.046875 -24.320312 2.90625 -28.929688 6.625 -32.703125 C 10.34375 -36.484375 14.820312 -38.375 20.0625 -38.375 C 25.320312 -38.375 29.796875 -36.492188 33.484375 -32.734375 C 37.171875 -28.972656 39.015625 -24.351562 39.015625 -18.875 C 39.015625 -13.351562 37.203125 -8.710938 33.578125 -4.953125 C 29.953125 -1.191406 25.445312 0.6875 20.0625 0.6875 C 14.539062 0.6875 9.988281 -1.175781 6.40625 -4.90625 C 2.832031 -8.644531 1.046875 -13.300781 1.046875 -18.875 Z M 10.328125 -18.875 C 10.328125 -16.894531 10.628906 -15.085938 11.234375 -13.453125 C 11.847656 -11.828125 12.914062 -10.445312 14.4375 -9.3125 C 15.957031 -8.1875 17.832031 -7.625 20.0625 -7.625 C 23.257812 -7.625 25.671875 -8.71875 27.296875 -10.90625 C 28.929688 -13.101562 29.75 -15.757812 29.75 -18.875 C 29.75 -21.945312 28.914062 -24.585938 27.25 -26.796875 C 25.59375 -29.003906 23.195312 -30.109375 20.0625 -30.109375 C 16.945312 -30.109375 14.546875 -29.003906 12.859375 -26.796875 C 11.171875 -24.585938 10.328125 -21.945312 10.328125 -18.875 Z M 10.328125 -18.875 "/></g></g></g><g fill="#ffffff" fill-opacity="1"><g transform="translate(150.976396, 199.499987)"><g><path d="M 2.734375 -37.6875 L 16.21875 -37.6875 C 19.84375 -37.6875 22.796875 -36.71875 25.078125 -34.78125 C 27.367188 -32.851562 28.515625 -30.09375 28.515625 -26.5 C 28.515625 -23.726562 27.816406 -21.40625 26.421875 -19.53125 C 25.035156 -17.65625 23.15625 -16.335938 20.78125 -15.578125 L 33.765625 0 L 22.84375 0 L 11.328125 -14.890625 L 11.328125 0 L 2.734375 0 Z M 11.328125 -20.96875 L 12.328125 -20.96875 C 13.128906 -20.96875 13.800781 -20.984375 14.34375 -21.015625 C 14.894531 -21.046875 15.519531 -21.148438 16.21875 -21.328125 C 16.914062 -21.515625 17.476562 -21.773438 17.90625 -22.109375 C 18.332031 -22.441406 18.695312 -22.925781 19 -23.5625 C 19.3125 -24.207031 19.46875 -24.988281 19.46875 -25.90625 C 19.46875 -26.820312 19.3125 -27.597656 19 -28.234375 C 18.695312 -28.867188 18.332031 -29.351562 17.90625 -29.6875 C 17.476562 -30.03125 16.914062 -30.289062 16.21875 -30.46875 C 15.519531 -30.65625 14.894531 -30.765625 14.34375 -30.796875 C 13.800781 -30.828125 13.128906 -30.84375 12.328125 -30.84375 L 11.328125 -30.84375 Z M 11.328125 -20.96875 "/></g></g></g><g fill="#ffffff" fill-opacity="1"><g transform="translate(183.683013, 199.499987)"><g/></g></g><g fill="#ffffff" fill-opacity="1"><g transform="translate(196.153548, 199.499987)"><g><path d="M 2.734375 -37.6875 L 13.65625 -37.6875 C 18.894531 -37.6875 23.375 -35.894531 27.09375 -32.3125 C 30.8125 -28.738281 32.671875 -24.257812 32.671875 -18.875 C 32.671875 -13.445312 30.816406 -8.941406 27.109375 -5.359375 C 23.410156 -1.785156 18.925781 0 13.65625 0 L 2.734375 0 Z M 11.328125 -7.671875 L 12.65625 -7.671875 C 15.789062 -7.671875 18.351562 -8.726562 20.34375 -10.84375 C 22.34375 -12.96875 23.359375 -15.628906 23.390625 -18.828125 C 23.390625 -22.023438 22.390625 -24.6875 20.390625 -26.8125 C 18.398438 -28.945312 15.820312 -30.015625 12.65625 -30.015625 L 11.328125 -30.015625 Z M 11.328125 -7.671875 "/></g></g></g><g fill="#ffffff" fill-opacity="1"><g transform="translate(229.865116, 199.499987)"><g><path d="M 2.734375 -37.6875 L 16.21875 -37.6875 C 19.84375 -37.6875 22.796875 -36.71875 25.078125 -34.78125 C 27.367188 -32.851562 28.515625 -30.09375 28.515625 -26.5 C 28.515625 -23.726562 27.816406 -21.40625 26.421875 -19.53125 C 25.035156 -17.65625 23.15625 -16.335938 20.78125 -15.578125 L 33.765625 0 L 22.84375 0 L 11.328125 -14.890625 L 11.328125 0 L 2.734375 0 Z M 11.328125 -20.96875 L 12.328125 -20.96875 C 13.128906 -20.96875 13.800781 -20.984375 14.34375 -21.015625 C 14.894531 -21.046875 15.519531 -21.148438 16.21875 -21.328125 C 16.914062 -21.515625 17.476562 -21.773438 17.90625 -22.109375 C 18.332031 -22.441406 18.695312 -22.925781 19 -23.5625 C 19.3125 -24.207031 19.46875 -24.988281 19.46875 -25.90625 C 19.46875 -26.820312 19.3125 -27.597656 19 -28.234375 C 18.695312 -28.867188 18.332031 -29.351562 17.90625 -29.6875 C 17.476562 -30.03125 16.914062 -30.289062 16.21875 -30.46875 C 15.519531 -30.65625 14.894531 -30.765625 14.34375 -30.796875 C 13.800781 -30.828125 13.128906 -30.84375 12.328125 -30.84375 L 11.328125 -30.84375 Z M 11.328125 -20.96875 "/></g></g></g><g fill="#ffffff" fill-opacity="1"><g transform="translate(262.571734, 199.499987)"><g><path d="M 11.328125 -37.6875 L 11.328125 0 L 2.734375 0 L 2.734375 -37.6875 Z M 11.328125 -37.6875 "/></g></g></g><g fill="#ffffff" fill-opacity="1"><g transform="translate(276.641053, 199.499987)"><g><path d="M 11.328125 -23.390625 L 11.328125 0 L 2.734375 0 L 2.734375 -37.6875 L 11.328125 -37.6875 L 26.3125 -14.296875 L 26.40625 -14.296875 L 26.40625 -37.6875 L 35 -37.6875 L 35 0 L 26.40625 0 L 11.421875 -23.390625 Z M 11.328125 -23.390625 "/></g></g></g><g fill="#ffffff" fill-opacity="1"><g transform="translate(314.372427, 199.499987)"><g><path d="M 37.046875 0 L 25.21875 0 L 11.328125 -15.984375 L 11.328125 0 L 2.734375 0 L 2.734375 -37.6875 L 11.328125 -37.6875 L 11.328125 -22.296875 L 24.265625 -37.6875 L 34.671875 -37.6875 L 19.515625 -19.828125 Z M 37.046875 0 "/></g></g></g><g clip-path="url(#ddcb75e728)"><path fill="#ca1c24" d="M 112.609375 143.339844 C 113.925781 149.636719 117.398438 155.445312 125.332031 160.445312 C 127.679688 161.925781 126.191406 164.136719 122.460938 164.683594 L 122.390625 164.695312 C 119.683594 165.089844 116.871094 164.417969 115.882812 163.144531 C 111.289062 157.230469 110.867188 150.53125 112.609375 143.339844 Z M 112.609375 143.339844 " fill-opacity="1" fill-rule="nonzero"/></g><g clip-path="url(#f4037f3383)"><path fill="#633e3e" d="M 116.441406 163.09375 C 112.070312 157.097656 111.359375 150.441406 112.617188 143.367188 C 112.613281 143.359375 112.613281 143.347656 112.609375 143.339844 C 110.867188 150.53125 111.289062 157.230469 115.882812 163.144531 C 116.488281 163.925781 117.78125 164.480469 119.316406 164.699219 C 118.042969 164.398438 116.980469 163.832031 116.441406 163.09375 Z M 116.441406 163.09375 " fill-opacity="0.498" fill-rule="nonzero"/></g><path fill="#d93b3b" d="M 112.910156 144.960938 C 114.328125 150.808594 117.367188 155.9375 123.425781 160.546875 C 125.1875 161.890625 126.027344 163.164062 122.703125 164.121094 L 122.664062 164.125 C 120.113281 164.816406 119.425781 163.621094 118.574219 162.460938 C 114.632812 157.070312 113.488281 151.167969 112.910156 144.960938 Z M 112.910156 144.960938 " fill-opacity="1" fill-rule="nonzero"/><g clip-path="url(#05556bc782)"><path fill="#ca1c24" d="M 149.597656 143.339844 C 148.285156 149.636719 144.808594 155.445312 136.875 160.445312 C 134.53125 161.925781 136.015625 164.136719 139.75 164.683594 L 139.820312 164.695312 C 142.523438 165.089844 145.339844 164.417969 146.328125 163.144531 C 150.921875 157.230469 151.34375 150.53125 149.597656 143.339844 Z M 149.597656 143.339844 " fill-opacity="1" fill-rule="nonzero"/></g><g clip-path="url(#8f54da7962)"><path fill="#633e3e" d="M 145.769531 163.09375 C 150.140625 157.097656 150.847656 150.441406 149.59375 143.367188 C 149.59375 143.359375 149.597656 143.347656 149.597656 143.339844 C 151.339844 150.53125 150.921875 157.230469 146.328125 163.144531 C 145.71875 163.925781 144.425781 164.480469 142.890625 164.699219 C 144.167969 164.398438 145.230469 163.832031 145.769531 163.09375 Z M 145.769531 163.09375 " fill-opacity="0.498" fill-rule="nonzero"/></g><path fill="#d93b3b" d="M 149.296875 144.960938 C 147.878906 150.808594 144.839844 155.9375 138.785156 160.546875 C 137.019531 161.890625 136.179688 163.164062 139.507812 164.121094 L 139.542969 164.125 C 142.097656 164.816406 142.78125 163.621094 143.632812 162.460938 C 147.578125 157.070312 148.71875 151.167969 149.296875 144.960938 Z M 149.296875 144.960938 " fill-opacity="1" fill-rule="nonzero"/><g fill="#ffffff" fill-opacity="1"><g transform="translate(137.575191, 222.682135)"><g><path d="M 3.734375 -9.046875 L 3.734375 -6.765625 L 7.390625 -6.765625 L 7.390625 -4.65625 L 3.734375 -4.65625 L 3.734375 -2.1875 L 7.875 -2.1875 L 7.875 0 L 0.984375 0 L 0.984375 -11.234375 L 7.875 -11.234375 L 7.875 -9.046875 Z M 3.734375 -9.046875 "/></g></g></g><g fill="#ffffff" fill-opacity="1"><g transform="translate(146.22911, 222.682135)"><g><path d="M 11.53125 -11.234375 L 7.546875 0 L 4.125 0 L 0.140625 -11.234375 L 3.0625 -11.234375 L 5.84375 -2.75 L 8.640625 -11.234375 Z M 11.53125 -11.234375 "/></g></g></g><g fill="#ffffff" fill-opacity="1"><g transform="translate(157.906306, 222.682135)"><g><path d="M 3.734375 -11.234375 L 3.734375 0 L 0.984375 0 L 0.984375 -11.234375 Z M 3.734375 -11.234375 "/></g></g></g><g fill="#ffffff" fill-opacity="1"><g transform="translate(162.625174, 222.682135)"><g><path d="M 3.734375 -2.109375 L 7.3125 -2.109375 L 7.3125 0 L 0.984375 0 L 0.984375 -11.234375 L 3.734375 -11.234375 Z M 3.734375 -2.109375 "/></g></g></g><g fill="#ffffff" fill-opacity="1"><g transform="translate(170.255338, 222.682135)"><g/></g></g><g fill="#ffffff" fill-opacity="1"><g transform="translate(173.64652, 222.682135)"><g><path d="M 3.734375 -9.046875 L 3.734375 -6.765625 L 7.390625 -6.765625 L 7.390625 -4.65625 L 3.734375 -4.65625 L 3.734375 -2.1875 L 7.875 -2.1875 L 7.875 0 L 0.984375 0 L 0.984375 -11.234375 L 7.875 -11.234375 L 7.875 -9.046875 Z M 3.734375 -9.046875 "/></g></g></g><g fill="#ffffff" fill-opacity="1"><g transform="translate(182.300439, 222.682135)"><g><path d="M 5.203125 -11.234375 C 6.378906 -11.234375 7.410156 -11 8.296875 -10.53125 C 9.179688 -10.0625 9.867188 -9.398438 10.359375 -8.546875 C 10.847656 -7.703125 11.09375 -6.722656 11.09375 -5.609375 C 11.09375 -4.515625 10.847656 -3.539062 10.359375 -2.6875 C 9.867188 -1.832031 9.175781 -1.171875 8.28125 -0.703125 C 7.394531 -0.234375 6.367188 0 5.203125 0 L 0.984375 0 L 0.984375 -11.234375 Z M 5.03125 -2.375 C 6.0625 -2.375 6.863281 -2.65625 7.4375 -3.21875 C 8.007812 -3.78125 8.296875 -4.578125 8.296875 -5.609375 C 8.296875 -6.648438 8.007812 -7.457031 7.4375 -8.03125 C 6.863281 -8.601562 6.0625 -8.890625 5.03125 -8.890625 L 3.734375 -8.890625 L 3.734375 -2.375 Z M 5.03125 -2.375 "/></g></g></g><g fill="#ffffff" fill-opacity="1"><g transform="translate(193.929649, 222.682135)"><g><path d="M 3.734375 -11.234375 L 3.734375 0 L 0.984375 0 L 0.984375 -11.234375 Z M 3.734375 -11.234375 "/></g></g></g><g fill="#ffffff" fill-opacity="1"><g transform="translate(198.648517, 222.682135)"><g><path d="M 9.078125 -11.234375 L 9.078125 -9.046875 L 6.09375 -9.046875 L 6.09375 0 L 3.359375 0 L 3.359375 -9.046875 L 0.390625 -9.046875 L 0.390625 -11.234375 Z M 9.078125 -11.234375 "/></g></g></g><g fill="#ffffff" fill-opacity="1"><g transform="translate(208.10224, 222.682135)"><g><path d="M 3.734375 -11.234375 L 3.734375 0 L 0.984375 0 L 0.984375 -11.234375 Z M 3.734375 -11.234375 "/></g></g></g><g fill="#ffffff" fill-opacity="1"><g transform="translate(212.821108, 222.682135)"><g><path d="M 6.296875 0.109375 C 5.242188 0.109375 4.273438 -0.132812 3.390625 -0.625 C 2.515625 -1.113281 1.816406 -1.796875 1.296875 -2.671875 C 0.785156 -3.554688 0.53125 -4.546875 0.53125 -5.640625 C 0.53125 -6.742188 0.785156 -7.734375 1.296875 -8.609375 C 1.816406 -9.484375 2.515625 -10.164062 3.390625 -10.65625 C 4.273438 -11.144531 5.242188 -11.390625 6.296875 -11.390625 C 7.359375 -11.390625 8.328125 -11.144531 9.203125 -10.65625 C 10.085938 -10.164062 10.78125 -9.484375 11.28125 -8.609375 C 11.789062 -7.734375 12.046875 -6.742188 12.046875 -5.640625 C 12.046875 -4.546875 11.789062 -3.554688 11.28125 -2.671875 C 10.769531 -1.796875 10.078125 -1.113281 9.203125 -0.625 C 8.328125 -0.132812 7.359375 0.109375 6.296875 0.109375 Z M 6.296875 -2.390625 C 7.191406 -2.390625 7.910156 -2.6875 8.453125 -3.28125 C 8.992188 -3.875 9.265625 -4.660156 9.265625 -5.640625 C 9.265625 -6.640625 8.992188 -7.429688 8.453125 -8.015625 C 7.910156 -8.609375 7.191406 -8.90625 6.296875 -8.90625 C 5.390625 -8.90625 4.664062 -8.613281 4.125 -8.03125 C 3.59375 -7.445312 3.328125 -6.648438 3.328125 -5.640625 C 3.328125 -4.648438 3.59375 -3.859375 4.125 -3.265625 C 4.664062 -2.679688 5.390625 -2.390625 6.296875 -2.390625 Z M 6.296875 -2.390625 "/></g></g></g><g fill="#ffffff" fill-opacity="1"><g transform="translate(225.39409, 222.682135)"><g><path d="M 11.046875 0 L 8.296875 0 L 3.734375 -6.921875 L 3.734375 0 L 0.984375 0 L 0.984375 -11.234375 L 3.734375 -11.234375 L 8.296875 -4.265625 L 8.296875 -11.234375 L 11.046875 -11.234375 Z M 11.046875 0 "/></g></g></g></svg>